<?xml version="1.0" encoding="UTF-8" standalone="no"?>
<svg
   id="Layer_1"
   style="enable-background:new 0 0 128 128;"
   version="1.1"
   viewBox="0 0 128 128"
   xml:space="preserve"
   sodipodi:docname=".svg"
   inkscape:version="1.1.2 (b8e25be833, 2022-02-05)"
   xmlns:inkscape="http://www.inkscape.org/namespaces/inkscape"
   xmlns:sodipodi="http://sodipodi.sourceforge.net/DTD/sodipodi-0.dtd"
   xmlns="http://www.w3.org/2000/svg"
   xmlns:svg="http://www.w3.org/2000/svg"><defs
     id="defs11" /><sodipodi:namedview
     id="namedview9"
     pagecolor="#ffffff"
     bordercolor="#666666"
     borderopacity="1.0"
     inkscape:pageshadow="2"
     inkscape:pageopacity="0.0"
     inkscape:pagecheckerboard="true"
     showgrid="false"
     inkscape:zoom="6.6328125"
     inkscape:cx="64"
     inkscape:cy="63.924617"
     inkscape:window-width="1920"
     inkscape:window-height="1009"
     inkscape:window-x="-8"
     inkscape:window-y="-8"
     inkscape:window-maximized="1"
     inkscape:current-layer="Layer_1" /><style
     type="text/css"
     id="style2">
	.st0{fill:#4D4D4D;}
	.st1{fill:#FFFFFF;}
</style><path
     id="circle4"
     style="fill:#ffffff;fill-opacity:1"
     class="st0"
     d="M 64 0 A 64 64 0 0 0 0 64 A 64 64 0 0 0 64 128 A 64 64 0 0 0 128 64 A 64 64 0 0 0 64 0 z M 58 24 L 70 24 C 70.6 24 71 24.4 71 25 L 71 34.099609 C 71 34.599609 71.299219 34.999609 71.699219 35.099609 C 74.299219 35.799609 76.7 36.799609 79 38.099609 C 79.4 38.299609 79.899219 38.200391 80.199219 37.900391 L 86.599609 31.5 C 86.999609 31.1 87.6 31.1 88 31.5 L 96.400391 40 C 96.800391 40.4 96.800391 41.000391 96.400391 41.400391 L 90 47.800781 C 89.7 48.100781 89.700391 48.6 89.900391 49 C 91.200391 51.3 92.200391 53.700781 92.900391 56.300781 C 93.100391 56.700781 93.400391 57 93.900391 57 L 103 57 C 103.6 57 104 57.4 104 58 L 104 70 C 104 70.6 103.59961 71.1 103.09961 71 L 94 71 C 93.5 71 93.1 71.299219 93 71.699219 C 92.3 74.299219 91.3 76.600391 90 78.900391 C 89.8 79.300391 89.899219 79.799609 90.199219 80.099609 L 96.599609 86.5 C 96.999609 86.9 96.999609 87.500391 96.599609 87.900391 L 88.099609 96.400391 C 87.699609 96.800391 87.099219 96.800391 86.699219 96.400391 L 80.300781 90 C 80.000781 89.7 79.499609 89.700391 79.099609 89.900391 C 76.799609 91.200391 74.400781 92.200391 71.800781 92.900391 C 71.400781 93.100391 71 93.5 71 94 L 71 103 C 71 103.6 70.699609 104 70.099609 104 L 58.099609 104 C 57.499609 104 57 103.6 57 103 L 57 94 C 57 93.5 56.800391 93.000391 56.400391 92.900391 C 53.800391 92.200391 51.399609 91.200391 49.099609 89.900391 C 48.699609 89.700391 48.200391 89.799609 47.900391 90.099609 L 41.5 96.5 C 41.1 96.9 40.499609 96.9 40.099609 96.5 L 31.599609 88 C 31.199609 87.6 31.199609 86.999609 31.599609 86.599609 L 38 80.199219 C 38.3 79.899219 38.299609 79.4 38.099609 79 C 36.799609 76.7 35.799609 74.299219 35.099609 71.699219 C 34.899609 71.299219 34.599609 71 34.099609 71 L 25 71 C 24.4 71 24 70.6 24 70 L 24 58 C 24 57.4 24.4 57 25 57 L 34.099609 57 C 34.599609 57 34.999609 56.700781 35.099609 56.300781 C 35.799609 53.700781 36.799609 51.3 38.099609 49 C 38.299609 48.6 38.200391 48.100781 37.900391 47.800781 L 31.5 41.400391 C 31.1 41.000391 31.1 40.4 31.5 40 L 40 31.599609 C 40.4 31.199609 41.000391 31.199609 41.400391 31.599609 L 47.800781 38 C 48.100781 38.3 48.6 38.299609 49 38.099609 C 51.3 36.799609 53.700781 35.799609 56.300781 35.099609 C 56.700781 34.899609 57 34.599609 57 34.099609 L 57 25 C 57 24.4 57.4 24 58 24 z M 64 46 C 54.1 46 46 54.1 46 64 C 46 73.9 54.1 82 64 82 C 73.9 82 82 73.9 82 64 C 82 54.1 73.9 46 64 46 z " /></svg>
