<?xml version="1.0" encoding="UTF-8" standalone="no"?>
<svg
   width="14"
   height="14"
   viewBox="0 0 14 14"
   version="1.1"
   id="svg14"
   sodipodi:docname="play-prev.svg"
   inkscape:version="1.1.1 (3bf5ae0d25, 2021-09-20)"
   xmlns:inkscape="http://www.inkscape.org/namespaces/inkscape"
   xmlns:sodipodi="http://sodipodi.sourceforge.net/DTD/sodipodi-0.dtd"
   xmlns="http://www.w3.org/2000/svg"
   xmlns:svg="http://www.w3.org/2000/svg"
   xmlns:rdf="http://www.w3.org/1999/02/22-rdf-syntax-ns#"
   xmlns:cc="http://creativecommons.org/ns#"
   xmlns:dc="http://purl.org/dc/elements/1.1/">
  <defs
     id="defs18" />
  <sodipodi:namedview
     id="namedview16"
     pagecolor="#ffffff"
     bordercolor="#666666"
     borderopacity="1.0"
     inkscape:pageshadow="2"
     inkscape:pageopacity="0.0"
     inkscape:pagecheckerboard="0"
     showgrid="false"
     width="14px"
     inkscape:zoom="19.366901"
     inkscape:cx="8.3131524"
     inkscape:cy="9.3200249"
     inkscape:window-width="1920"
     inkscape:window-height="1009"
     inkscape:window-x="-8"
     inkscape:window-y="-8"
     inkscape:window-maximized="1"
     inkscape:current-layer="svg14" />
  <!-- Generator: Sketch 52.5 (67469) - http://www.bohemiancoding.com/sketch -->
  <title
     id="title2">skip_next</title>
  <desc
     id="desc4">Created with Sketch.</desc>
  <g
     id="Icons"
     stroke="none"
     stroke-width="1"
     fill="none"
     fill-rule="evenodd"
     transform="matrix(-1.1618875,0,0,1.1618875,14.001197,0.05854749)">
    <g
       id="Rounded"
       transform="translate(-548,-1000)">
      <g
         id="AV"
         transform="translate(100,852)">
        <g
           id="-Round-/-AV-/-skip_next"
           transform="translate(442,142)">
          <g
             id="g8">
            <rect
               id="Rectangle-Copy-52"
               x="0"
               y="0"
               width="24"
               height="24" />
            <path
               d="m 7.58,16.89 5.77,-4.07 c 0.56,-0.4 0.56,-1.24 0,-1.63 L 7.58,7.11 C 6.91,6.65 6,7.12 6,7.93 v 8.14 c 0,0.81 0.91,1.28 1.58,0.82 z M 16,7 v 10 c 0,0.55 0.45,1 1,1 0.55,0 1,-0.45 1,-1 V 7 C 18,6.45 17.55,6 17,6 16.45,6 16,6.45 16,7 Z"
               id="🔹Icon-Color"
               fill="#1d1d1d"
               style="fill:#ffffff;fill-opacity:1" />
          </g>
        </g>
      </g>
    </g>
  </g>
  <metadata
     id="metadata835">
    <rdf:RDF>
      <cc:Work
         rdf:about="">
        <dc:title>skip_next</dc:title>
      </cc:Work>
    </rdf:RDF>
  </metadata>
</svg>
