<?xml version="1.0" encoding="UTF-8" standalone="no"?>
<svg
   width="14"
   height="14"
   viewBox="0 0 14 14"
   version="1.1"
   id="svg14"
   sodipodi:docname="volume.svg"
   inkscape:version="1.1.1 (3bf5ae0d25, 2021-09-20)"
   xmlns:inkscape="http://www.inkscape.org/namespaces/inkscape"
   xmlns:sodipodi="http://sodipodi.sourceforge.net/DTD/sodipodi-0.dtd"
   xmlns="http://www.w3.org/2000/svg"
   xmlns:svg="http://www.w3.org/2000/svg"
   xmlns:rdf="http://www.w3.org/1999/02/22-rdf-syntax-ns#"
   xmlns:cc="http://creativecommons.org/ns#"
   xmlns:dc="http://purl.org/dc/elements/1.1/">
  <defs
     id="defs18" />
  <sodipodi:namedview
     id="namedview16"
     pagecolor="#ffffff"
     bordercolor="#666666"
     borderopacity="1.0"
     inkscape:pageshadow="2"
     inkscape:pageopacity="0.0"
     inkscape:pagecheckerboard="true"
     showgrid="false"
     width="14px"
     inkscape:zoom="11.444444"
     inkscape:cx="15.116505"
     inkscape:cy="0.13106796"
     inkscape:window-width="1920"
     inkscape:window-height="1009"
     inkscape:window-x="-8"
     inkscape:window-y="-8"
     inkscape:window-maximized="1"
     inkscape:current-layer="svg14"
     borderlayer="true"
     inkscape:showpageshadow="false" />
  <!-- Generator: Sketch 52.5 (67469) - http://www.bohemiancoding.com/sketch -->
  <title
     id="title2">volume_up</title>
  <desc
     id="desc4">Created with Sketch.</desc>
  <g
     id="Icons"
     stroke="none"
     stroke-width="1"
     fill="none"
     fill-rule="evenodd"
     transform="matrix(0.77602564,0,0,0.81850354,0.02316976,-0.32823827)">
    <g
       id="Rounded"
       transform="translate(-817,-997)">
      <g
         id="AV"
         transform="translate(100,852)">
        <g
           id="-Round-/-AV-/-volume_up"
           transform="translate(714,142)">
          <g
             id="g8">
            <rect
               id="Rectangle-Copy-86"
               x="0"
               y="0"
               width="24"
               height="24" />
            <path
               d="m 3,8.0784255 0,7.8431495 c 0,0.55 0.45,1 1,1 h 3 l 3.29,3.29 c 0.63,0.63 1.71,0.18 1.71,-0.71 L 12,4.4884255 c 0,-0.89 -1.08,-1.34 -1.71,-0.71 l -3.29,3.3 H 4 c -0.55,0 -1,0.45 -1,1 z M 16.5,12 C 16.5,10.23 15.48,8.71 14,7.97 v 8.05 C 15.48,15.29 16.5,13.77 16.5,12 Z M 14,4.45 v 0.2 c 0,0.38 0.25,0.71 0.6,0.85 2.58,1.03 4.4,3.56 4.4,6.5 0,2.94 -1.82,5.47 -4.4,6.5 -0.36,0.14 -0.6,0.47 -0.6,0.85 v 0.2 c 0,0.63 0.63,1.07 1.21,0.85 C 18.6,19.11 21,15.84 21,12 21,8.16 18.6,4.89 15.21,3.6 14.63,3.37 14,3.82 14,4.45 Z"
               id="🔹Icon-Color"
               fill="#1d1d1d"
               sodipodi:nodetypes="ssscsssccsssccssscscsscscs"
               style="fill:#ffffff;fill-opacity:1" />
          </g>
        </g>
      </g>
    </g>
  </g>
  <metadata
     id="metadata837">
    <rdf:RDF>
      <cc:Work
         rdf:about="">
        <dc:title>volume_up</dc:title>
      </cc:Work>
    </rdf:RDF>
  </metadata>
</svg>
